<svg xmlns="http://www.w3.org/2000/svg" viewBox="0 0 902.57 1053"><defs><style>.cls-1{fill:#fff;}</style></defs><g id="" data-name=""><rect class="cls-1" width="902.57" height="1053"/></g><g id="" data-name=""><polygon points="547.57 540 505.26 540 505.26 540.03 411.09 540.03 411.09 540.06 411.09 540.06 411.09 709.42 411.09 709.42 411.09 751.74 547.57 751.74 547.57 751.64 547.57 751.64 547.57 645.91 505.26 645.91 505.26 645.91 476.65 645.91 476.65 688.23 505.26 688.23 505.26 709.42 453.41 709.42 453.41 582.35 505.26 582.35 505.26 624.92 547.57 624.92 547.57 582.35 547.57 582.35 547.57 540.03 547.57 540.03 547.57 540"/></g><g id="Слой_3" data-name="Слой 3"><polygon points="695.57 540 559.09 540 559.09 582.32 606.17 582.32 606.17 751.64 648.49 751.64 648.49 582.32 695.57 582.32 695.57 540"/></g><g id="Слой_4" data-name="Слой 4"><polygon points="357.26 650.71 305.77 540 305.4 540.17 305.4 540.12 263.09 540.12 263.09 751.7 305.4 751.7 305.4 639.56 357.26 751.06 357.26 751.7 357.55 751.7 357.6 751.79 357.8 751.7 399.57 751.7 399.57 540.12 357.26 540.12 357.26 650.71"/></g><g id="Слой_5" data-name="Слой 5"><path d="M417.73,291.64c58.72-58.55,35.54-141.12-55.21-112.46-11.28-28.27-28.77-55.15-59.35-57.29-29.7,1.31-47.77,29.75-58.84,56.24-90.41-27.88-112.54,52-55.71,112.48-58.38,59.57-35.82,139.69,55.2,112.46,12.12,27,28.63,55.57,59.35,57.29,30.3-1.64,47.84-29.63,58.84-56.76C451.75,432.15,476.28,351.56,417.73,291.64ZM397.42,187c62-4.74,42.53,69.73,10.94,93.73-31.17-20.23-32.46-59.17-41.65-90.09A139.61,139.61,0,0,1,397.42,187ZM381.27,270.3c5.11,7.48,22,16.27,18.23,23.42C373.71,326.16,384.14,294.39,381.27,270.3Zm-12,20.82c10,42.49-37.16,57.16-66.12,76-29.63-18.58-74.55-33.67-66.12-76-8.66-43.09,37.1-57.82,66.64-76C332.51,233.85,378.92,248.73,369.29,291.12Zm-8.84-79.66c16.44,51.81-17.73,6.89-43.22-3.12C336.07,202.45,357.61,182.21,360.45,211.46ZM257.88,178.65c19.08-60,75.83-52.27,92.68,3.67C319.29,198.57,281.36,202.24,257.88,178.65Zm-5.73,14.58c37.53,10.11,41.8,16.07,5.19,35.41C226.82,257.49,249.08,209.22,252.15,193.23Zm-78.1,51c-25.27-49,24.86-68.79,66.12-54.15C232.06,230.69,205.84,324.28,174.05,244.27Zm50.95,26c-.91,27.49,6.25,53.6-20.28,20.3C211.19,283.79,218.55,276.63,225,270.3Zm-16.08,125C147,398.63,166.4,327.89,198,301,224.86,320.93,264.14,403.92,208.92,395.26Zm37.49-25c-17.82-51.64,18.12-6.72,43.23,3.64C271.42,379.31,247.53,401.05,246.41,370.27ZM349,403.6c-20,58.82-75.67,52.82-92.67-3.65C286.41,383.55,326.71,379.55,349,403.6ZM354.72,389c-38.37-10.77-41.59-15.71-5.19-35.41C378.25,324.65,357.74,373.41,354.72,389Zm78.62-5.72c-86.18,51.79-73.68-41.92-23.94-82.27C427,324.67,448.71,356.11,433.34,383.29Z" transform="translate(164.57 67.11)"/></g><g id="Слой_6" data-name="Слой 6"><path d="M303.17,260.41a30.77,30.77,0,0,0-30.72,30.71c0,16.67,14.06,31.25,30.72,31.25,17.18,0,30.73-14.58,30.73-31.25A30.45,30.45,0,0,0,303.17,260.41Z" transform="translate(164.57 67.11)"/></g><g id="Слой_7" data-name="Слой 7"><circle cx="338.15" cy="320.63" r="18.8"/></g><g id="Слой_8" data-name="Слой 8"><circle cx="435.07" cy="214.55" r="18.8"/></g><g id="Слой_9" data-name="Слой 9"><circle cx="563.8" cy="245.41" r="18.8"/></g><g id="Слой_11" data-name="Слой 11"><circle cx="563.8" cy="471.05" r="18.8"/></g></svg>