<svg xmlns="http://www.w3.org/2000/svg" xmlns:xlink="http://www.w3.org/1999/xlink" viewBox="0 0 595.28 841.89"><defs><style>.cls-1{fill:url(#Безымянный_градиент_153);}.cls-2{fill:#fff;}</style><linearGradient id="Безымянный_градиент_153" x1="627.52" y1="-130.9" x2="-54.09" y2="1049.68" gradientUnits="userSpaceOnUse"><stop offset="0.85" stop-color="#1d1d1b"/><stop offset="0.99" stop-color="#1d1d1b"/></linearGradient></defs><g id="Слой_10" data-name="Слой 10"><rect class="cls-1" x="-164.57" y="-67.11" width="902.57" height="1053"/></g><g id="Слой_2" data-name="Слой 2"><polygon class="cls-2" points="375.93 474.85 333.61 474.85 333.61 474.88 239.45 474.88 239.45 474.91 239.45 474.91 239.45 644.27 239.45 644.27 239.45 686.58 375.93 686.58 375.93 686.49 375.93 686.49 375.93 580.76 333.61 580.76 333.61 580.76 305.01 580.76 305.01 623.07 333.61 623.07 333.61 644.27 281.76 644.27 281.76 517.19 333.61 517.19 333.61 559.77 375.93 559.77 375.93 517.19 375.93 517.19 375.93 474.88 375.93 474.88 375.93 474.85"/></g><g id="Слой_3" data-name="Слой 3"><polygon class="cls-2" points="523.93 474.85 387.45 474.85 387.45 517.16 434.53 517.16 434.53 686.49 476.85 686.49 476.85 517.16 523.93 517.16 523.93 474.85"/></g><g id="Слой_4" data-name="Слой 4"><polygon class="cls-2" points="185.61 585.55 134.13 474.85 133.76 475.02 133.76 474.97 91.45 474.97 91.45 686.54 133.76 686.54 133.76 574.41 185.61 685.9 185.61 686.54 185.91 686.54 185.96 686.64 186.16 686.54 227.93 686.54 227.93 474.97 185.61 474.97 185.61 585.55"/></g><g id="Слой_5" data-name="Слой 5"><path class="cls-2" d="M427,292.29c58.73-58.56,35.55-141.13-55.2-112.47-11.28-28.27-28.77-55.15-59.35-57.29-29.7,1.31-47.77,29.75-58.84,56.24-90.41-27.88-112.54,52-55.71,112.48-58.38,59.58-35.82,139.69,55.19,112.47,12.13,27,28.64,55.56,59.36,57.28,30.3-1.64,47.84-29.62,58.84-56.76C461.06,432.79,485.59,352.2,427,292.29Zm-20.3-104.66c62-4.74,42.53,69.73,10.94,93.73C386.5,261.13,385.21,222.2,376,191.27A139.61,139.61,0,0,1,406.73,187.63Zm-16.15,83.31c5.11,7.48,22,16.28,18.23,23.42C383,326.8,393.45,295,390.58,270.94Zm-12,20.82c10,42.49-37.16,57.16-66.12,76-29.63-18.58-74.55-33.67-66.12-76-8.66-43.1,37.1-57.83,66.64-76C341.82,234.49,388.23,249.37,378.6,291.76Zm-8.84-79.66C386.2,263.91,352,219,326.54,209,345.38,203.09,366.92,182.85,369.76,212.1ZM267.19,179.29c19.08-60,75.83-52.27,92.68,3.67C328.6,199.21,290.67,202.88,267.19,179.29Zm-5.73,14.58C299,204,303.26,210,266.65,229.29,236.13,258.13,258.39,209.86,261.46,193.87Zm-78.1,51c-25.27-49,24.86-68.79,66.12-54.15C241.37,231.33,215.15,324.92,183.36,244.91Zm50.95,26c-.91,27.49,6.25,53.6-20.28,20.3C220.5,284.43,227.86,277.27,234.31,270.94Zm-16.08,125c-61.93,3.37-42.52-67.37-10.92-94.23C234.17,321.57,273.45,404.56,218.23,395.9Zm37.49-25c-17.82-51.64,18.12-6.72,43.23,3.64C280.73,380,256.84,401.69,255.72,370.91Zm102.57,33.33c-20,58.82-75.67,52.82-92.67-3.65C295.72,384.19,336,380.2,358.29,404.24ZM364,389.66c-38.37-10.77-41.59-15.72-5.19-35.41C387.56,325.29,367.05,374.05,364,389.66Zm78.62-5.72C356.47,435.72,369,342,418.71,301.67,436.27,325.31,458,356.75,442.65,383.94Z"/></g><g id="Слой_6" data-name="Слой 6"><path class="cls-2" d="M312.48,261.05a30.77,30.77,0,0,0-30.72,30.71c0,16.67,14.06,31.25,30.72,31.25,17.18,0,30.73-14.58,30.73-31.25A30.45,30.45,0,0,0,312.48,261.05Z"/></g><g id="Слой_7" data-name="Слой 7"><circle class="cls-2" cx="182.89" cy="254.16" r="18.8"/></g><g id="Слой_8" data-name="Слой 8"><circle class="cls-2" cx="276.91" cy="141.34" r="18.8"/></g><g id="Слой_9" data-name="Слой 9"><circle class="cls-2" cx="408.54" cy="178.94" r="18.8"/></g><g id="Слой_11" data-name="Слой 11"><circle class="cls-2" cx="408.54" cy="404.59" r="18.8"/></g></svg>